<svg width="1024" height="1024" viewBox="0 0 1024 1024" fill="none" xmlns="http://www.w3.org/2000/svg">
<path fill-rule="evenodd" clip-rule="evenodd" d="M766.009 124.015C766.009 112.693 756.831 103.515 745.509 103.515H640.199L622.478 103.515C622.472 103.515 622.466 103.515 622.46 103.515H584.905C579.382 103.515 574.905 107.992 574.905 113.515V315.322H640.199V168.809H745.509C756.831 168.809 766.009 159.631 766.009 148.309V124.015Z" fill="#011369"/>
<path fill-rule="evenodd" clip-rule="evenodd" d="M262.768 124.015C262.768 112.693 271.946 103.515 283.268 103.515H388.579L406.299 103.515C406.305 103.515 406.311 103.515 406.317 103.515H443.872C449.395 103.515 453.872 107.992 453.872 113.515V320.1H388.579V168.809H283.268C271.946 168.809 262.768 159.631 262.768 148.309V124.015Z" fill="#8C52FF"/>
<path fill-rule="evenodd" clip-rule="evenodd" d="M505.02 277.213C491.168 292.383 442.892 347.313 418.831 401.319H394.095C388.192 384.618 372.265 372.653 353.543 372.653C329.795 372.653 310.544 391.904 310.544 415.652C310.544 439.399 329.795 458.65 353.543 458.65C371.664 458.65 387.167 447.44 393.496 431.577H408.176C407.319 435.07 406.62 438.525 406.096 441.928C401.456 472.108 401.62 494.739 406.119 519.166H338.356C332.453 502.466 316.526 490.501 297.804 490.501C274.057 490.501 254.806 509.752 254.806 533.499C254.806 557.247 274.057 576.498 297.804 576.498C315.925 576.498 331.428 565.288 337.757 549.424H413.42C414.601 553.536 415.876 557.772 417.244 562.165C425.783 589.582 438.474 607.487 452.026 625.866H419.575C413.672 609.166 397.745 597.201 379.023 597.201C355.276 597.201 336.025 616.452 336.025 640.199C336.025 663.946 355.276 683.197 379.023 683.197C397.144 683.197 412.647 671.988 418.976 656.124H473.273C477.258 662.454 481.171 669.27 484.927 676.827C489.832 686.695 494.697 695.234 499.276 703.271C508.622 719.676 516.779 733.993 521.664 753.269H386.132C380.229 736.568 364.302 724.603 345.58 724.603C321.833 724.603 302.582 743.854 302.582 767.602C302.582 791.349 321.833 810.6 345.58 810.6C363.701 810.6 379.204 799.39 385.533 783.527H526.223C528.335 815.263 521.467 837.764 510.407 871.116C505.453 886.058 491.141 912.451 486.442 920.951C321.042 907.163 191.104 768.551 191.104 599.589C191.104 424.35 330.877 281.757 505.02 277.213ZM345.58 785.12C355.255 785.12 363.098 777.277 363.098 767.602C363.098 757.927 355.255 750.084 345.58 750.084C335.905 750.084 328.062 757.927 328.062 767.602C328.062 777.277 335.905 785.12 345.58 785.12ZM396.541 640.199C396.541 649.874 388.698 657.717 379.023 657.717C369.348 657.717 361.505 649.874 361.505 640.199C361.505 630.524 369.348 622.681 379.023 622.681C388.698 622.681 396.541 630.524 396.541 640.199ZM297.804 551.017C307.479 551.017 315.322 543.174 315.322 533.499C315.322 523.824 307.479 515.981 297.804 515.981C288.129 515.981 280.286 523.824 280.286 533.499C280.286 543.174 288.129 551.017 297.804 551.017ZM371.061 415.652C371.061 425.326 363.218 433.169 353.543 433.169C343.868 433.169 336.025 425.326 336.025 415.652C336.025 405.977 343.868 398.134 353.543 398.134C363.218 398.134 371.061 405.977 371.061 415.652Z" fill="#8C52FF"/>
<path fill-rule="evenodd" clip-rule="evenodd" d="M558.17 919.022C564.445 906.588 581.358 872.047 586.849 850.414C593.998 822.252 596.618 805.298 594.015 776.361C591.379 747.049 584.961 730.927 573.313 703.9C565.341 685.405 557.501 673.641 548.396 659.978C544.265 653.779 539.874 647.189 535.092 639.403C529.666 630.568 524.837 623.478 520.221 616.699C513.198 606.386 506.665 596.793 499.26 582.868C497.359 579.293 495.553 575.97 493.837 572.811C484.752 556.09 478.153 543.945 472.983 523.148C466.221 495.946 464.736 479.187 469.001 451.484C473.194 424.253 480.786 409.738 493.686 385.393C503.573 366.734 511.533 356.439 523.365 341.137C524.823 339.252 526.339 337.291 527.925 335.229C542.709 316.008 569.045 288.056 574.066 282.762C723.265 311.067 836.081 442.154 836.081 599.589C836.081 762.57 715.179 897.312 558.17 919.022Z" fill="#011369"/>
</svg>
